# xmcd CD database file
#
# Track frame offsets:
#	150
#	22698
#	47228
#	75718
#	101093
#	123729
#	142324
#	167026
#	188350
#	215187
#	238250
#	262880
#	284144
#	307402
#
# Disc length: 4350 seconds
#
# Revision: 25
# Processed by: cddbd v1.5.2PL0 Copyright (c) Steve Scherf et al.
# Submitted via: CDex 1.70beta2
#
DISCID=da10fc0e
DTITLE=CHEMISTRY - ALL THE BEST disc 1
DYEAR=2006
DGENRE=JPop
TTITLE0=PIECES OF A DREAM
TTITLE1=Point of No Return
TTITLE2=You Go Your Way
TTITLE3=君をさがしてた ～New Jersey United～
TTITLE4=FLOATIN'
TTITLE5=It Takes Two
TTITLE6=SOLID DREAM
TTITLE7=MOVE ON
TTITLE8=My Gift to You
TTITLE9=アシタヘカエル
TTITLE10=Us
TTITLE11=YOUR NAME NEVER GONE
TTITLE12=Now or Never
TTITLE13=You Got Me
EXTD=YEAR: 2006
EXTT0=
EXTT1=
EXTT2=
EXTT3=
EXTT4=
EXTT5=
EXTT6=
EXTT7=
EXTT8=
EXTT9=
EXTT10=
EXTT11=
EXTT12=
EXTT13=
PLAYORDER=
